<?xml version="1.0" standalone="no"?>
<!DOCTYPE svg PUBLIC "-//W3C//DTD SVG 20010904//EN"
 "http://www.w3.org/TR/2001/REC-SVG-20010904/DTD/svg10.dtd">
<svg version="1.0" xmlns="http://www.w3.org/2000/svg"
 width="260.000000pt" height="260.000000pt" viewBox="0 0 260.000000 260.000000"
 preserveAspectRatio="xMidYMid meet">
<metadata>
Created by potrace 1.11, written by Peter Selinger 2001-2013
</metadata>
<g transform="translate(0.000000,260.000000) scale(0.100000,-0.100000)"
fill="#000000" stroke="none">
<path d="M1248 2030 c-92 -20 -228 -84 -288 -137 -23 -21 -50 -45 -60 -53 -38
-34 -110 -144 -139 -214 -154 -369 -28 -774 300 -966 176 -104 428 -123 619
-48 87 34 169 86 227 144 l54 53 -81 61 -80 61 -56 -55 c-59 -59 -153 -111
-219 -123 -67 -11 -191 -6 -251 12 -182 53 -319 205 -361 398 -18 84 -12 245
11 318 76 242 263 388 493 387 47 0 101 -4 121 -10 65 -17 142 -60 187 -104
l44 -42 82 61 82 61 -60 56 c-146 138 -388 192 -625 140z"/>
</g>
</svg>
